<svg width="217" height="153" viewBox="0 0 217 153" fill="none" xmlns="http://www.w3.org/2000/svg">
<path d="M119.868 126.696H39.3998L0 0L80.9025 0L119.868 126.696Z" fill="#F1C12B"/>
<g opacity="0.5">
<path opacity="0.5" d="M217 131.182C217 135.497 215.726 139.715 213.339 143.303C210.952 146.891 207.559 149.688 203.589 151.339C199.62 152.99 195.252 153.422 191.037 152.58C186.823 151.739 182.952 149.661 179.914 146.609C176.876 143.558 174.807 139.671 173.969 135.438C173.13 131.206 173.561 126.819 175.205 122.833C176.849 118.846 179.634 115.439 183.206 113.041C186.779 110.644 190.979 109.364 195.276 109.364C201.037 109.364 206.563 111.663 210.637 115.755C214.711 119.846 217 125.396 217 131.182Z" fill="white"/>
</g>
<path d="M75.9607 153H155.55L194.512 26.3036L114.502 26.3036L75.9607 153Z" fill="white"/>
</svg>
